<svg width="50" height="50" viewBox="0 0 50 50" fill="none" xmlns="http://www.w3.org/2000/svg">
<path opacity="0.3" d="M27 0C39.7025 0 50 10.2975 50 23V27C50 39.7025 39.7025 50 27 50H23C10.2975 50 2.25505e-07 39.7025 0 27V23C0 10.2975 10.2975 2.2549e-07 23 0H27Z" fill="url(#paint0_radial_8_504)"/>
<path opacity="0.78" fill-rule="evenodd" clip-rule="evenodd" d="M23.8532 19.9177C23.8732 19.6572 24.0904 19.4561 24.3517 19.4561H24.5473C24.8042 19.4561 25.0193 19.6507 25.0448 19.9063L25.5554 25.0116L29.1923 27.0899C29.3481 27.1789 29.4442 27.3446 29.4442 27.524V27.6903C29.4442 28.02 29.1308 28.2594 28.8127 28.1727L23.7318 26.787C23.5004 26.7239 23.3464 26.5054 23.3648 26.2663L23.8532 19.9177Z" fill="url(#paint1_radial_8_504)"/>
<path opacity="0.901274" d="M18.1724 12.8194C18.2677 12.4198 18.7774 12.2996 19.0415 12.6143L20.4341 14.2735C21.8366 13.6764 23.3799 13.3448 25.0005 13.3448L25.3013 13.3487C31.6054 13.5085 36.6665 18.6692 36.6665 25.0118C36.6663 31.4548 31.4435 36.6775 25.0005 36.6778C18.5573 36.6778 13.3337 31.4549 13.3335 25.0118C13.3335 23.9175 13.4844 22.8579 13.7661 21.8536L15.9058 22.4542C15.6746 23.2784 15.5552 24.1362 15.5552 25.0118C15.5554 30.2276 19.7846 34.4561 25.0005 34.4561C30.2162 34.4558 34.4446 30.2275 34.4448 25.0118C34.4448 19.9587 30.4761 15.832 25.4858 15.5792L25.0005 15.5674C23.9435 15.5674 22.9137 15.7406 21.9429 16.0723L23.3374 17.7335C23.6019 18.0487 23.3937 18.5313 22.9829 18.5547L17.3901 18.8711C17.0559 18.8901 16.7978 18.5816 16.8755 18.2559L18.1724 12.8194Z" fill="url(#paint2_radial_8_504)"/>
<defs>
<radialGradient id="paint0_radial_8_504" cx="0" cy="0" r="1" gradientUnits="userSpaceOnUse" gradientTransform="translate(1.48926 26.4404) rotate(-0.127112) scale(44.0187)">
<stop stop-color="#F80160"/>
<stop offset="1" stop-color="#FBA51C"/>
</radialGradient>
<radialGradient id="paint1_radial_8_504" cx="0" cy="0" r="1" gradientUnits="userSpaceOnUse" gradientTransform="translate(23.5477 24.0872) rotate(-0.183167) scale(5.35053 7.70999)">
<stop stop-color="#F80160"/>
<stop offset="1" stop-color="#FBA51C"/>
</radialGradient>
<radialGradient id="paint2_radial_8_504" cx="0" cy="0" r="1" gradientUnits="userSpaceOnUse" gradientTransform="translate(14.0285 25.2549) rotate(-0.132067) scale(20.5418 21.3424)">
<stop stop-color="#F80160"/>
<stop offset="1" stop-color="#FBA51C"/>
</radialGradient>
</defs>
</svg>
