<svg width="50" height="50" viewBox="0 0 50 50" fill="none" xmlns="http://www.w3.org/2000/svg">
<path opacity="0.21" d="M27 0C39.7025 0 50 10.2975 50 23V27C50 39.7025 39.7025 50 27 50H23C10.2975 50 2.25505e-07 39.7025 0 27V23C0 10.2975 10.2975 2.2549e-07 23 0H27Z" fill="url(#paint0_radial_8_539)"/>
<path fill-rule="evenodd" clip-rule="evenodd" d="M12.5 20.2636L23.2504 26.4704C23.3662 26.5372 23.4876 26.5855 23.6111 26.6161V38.6538L13.2667 32.532C12.7915 32.2508 12.5 31.7395 12.5 31.1873V20.2636ZM37.4999 20.0986V31.1873C37.4999 31.7395 37.2084 32.2508 36.7331 32.532L26.3888 38.6538V26.5107C26.414 26.4981 26.4389 26.4847 26.4637 26.4704L37.4999 20.0986Z" fill="url(#paint1_radial_8_539)"/>
<path opacity="0.499209" fill-rule="evenodd" clip-rule="evenodd" d="M12.8379 17.2511C12.9692 17.0853 13.1349 16.9451 13.3282 16.8422L24.2657 11.0167C24.7248 10.7721 25.2756 10.7721 25.7347 11.0167L36.6722 16.8422C36.8212 16.9216 36.9538 17.023 37.0669 17.1413L25.0751 24.0648C24.9963 24.1103 24.9236 24.1624 24.8573 24.2199C24.7911 24.1624 24.7184 24.1103 24.6395 24.0648L12.8379 17.2511Z" fill="url(#paint2_radial_8_539)"/>
<defs>
<radialGradient id="paint0_radial_8_539" cx="0" cy="0" r="1" gradientUnits="userSpaceOnUse" gradientTransform="translate(1.48926 26.4404) rotate(-0.127112) scale(44.0187)">
<stop stop-color="#F80160"/>
<stop offset="1" stop-color="#FBA51C"/>
</radialGradient>
<radialGradient id="paint1_radial_8_539" cx="0" cy="0" r="1" gradientUnits="userSpaceOnUse" gradientTransform="translate(13.2446 29.9108) rotate(-0.0943438) scale(22.0093 16.3355)">
<stop stop-color="#F80160"/>
<stop offset="1" stop-color="#FBA51C"/>
</radialGradient>
<radialGradient id="paint2_radial_8_539" cx="0" cy="0" r="1" gradientUnits="userSpaceOnUse" gradientTransform="translate(13.5596 17.9123) rotate(-0.0702304) scale(21.3305 11.7853)">
<stop stop-color="#F80160"/>
<stop offset="1" stop-color="#FBA51C"/>
</radialGradient>
</defs>
</svg>
