<svg width="50" height="50" viewBox="0 0 50 50" fill="none" xmlns="http://www.w3.org/2000/svg">
<path opacity="0.21" d="M27 0C39.7025 0 50 10.2975 50 23V27C50 39.7025 39.7025 50 27 50H23C10.2975 50 2.25505e-07 39.7025 0 27V23C0 10.2975 10.2975 2.2549e-07 23 0H27Z" fill="url(#paint0_radial_8_557)"/>
<path opacity="0.587821" d="M31.6665 20.5557C33.5074 20.5557 34.9994 22.0479 34.9995 23.8887C34.9995 25.7296 33.5075 27.2227 31.6665 27.2227C29.8256 27.2226 28.3335 25.7296 28.3335 23.8887C28.3336 22.0479 29.8257 20.5558 31.6665 20.5557ZM21.6665 15C24.1211 15 26.1108 16.9898 26.1108 19.4443C26.1108 21.8989 24.1211 23.8887 21.6665 23.8887C19.212 23.8886 17.2222 21.8989 17.2222 19.4443C17.2222 16.9898 19.212 15.0001 21.6665 15Z" fill="url(#paint1_radial_8_557)"/>
<path d="M21.6482 26.1111C26.968 26.1111 31.3392 28.6591 31.6648 34.1111C31.6778 34.3283 31.6644 34.9997 30.8298 34.9998H12.4753C12.1967 34.9998 11.6443 34.399 11.6677 34.1101C12.0984 28.8072 16.4022 26.1111 21.6482 26.1111ZM31.2244 28.3347C35.0088 28.3764 38.099 30.2891 38.3318 34.3328C38.3411 34.4956 38.3316 34.9995 37.7292 34.9998H33.4451C33.445 32.4994 32.6183 30.1913 31.2244 28.3347Z" fill="url(#paint2_radial_8_557)"/>
<defs>
<radialGradient id="paint0_radial_8_557" cx="0" cy="0" r="1" gradientUnits="userSpaceOnUse" gradientTransform="translate(1.48926 26.4404) rotate(-0.127112) scale(44.0187)">
<stop stop-color="#F80160"/>
<stop offset="1" stop-color="#FBA51C"/>
</radialGradient>
<radialGradient id="paint1_radial_8_557" cx="0" cy="0" r="1" gradientUnits="userSpaceOnUse" gradientTransform="translate(17.7517 21.4634) rotate(-0.087393) scale(15.6508 10.7604)">
<stop stop-color="#F80160"/>
<stop offset="1" stop-color="#FBA51C"/>
</radialGradient>
<radialGradient id="paint2_radial_8_557" cx="0" cy="0" r="1" gradientUnits="userSpaceOnUse" gradientTransform="translate(12.4613 30.8115) rotate(-0.0423701) scale(23.4764 7.82537)">
<stop stop-color="#F80160"/>
<stop offset="1" stop-color="#FBA51C"/>
</radialGradient>
</defs>
</svg>
